<?xml version="1.0" encoding="utf-8"?>
<!-- Generator: Adobe Illustrator 25.0.1, SVG Export Plug-In . SVG Version: 6.00 Build 0)  -->
<svg version="1.1" id="Layer_1" xmlns="http://www.w3.org/2000/svg" xmlns:xlink="http://www.w3.org/1999/xlink" x="0px" y="0px"
	 viewBox="0 0 151.7 78" style="enable-background:new 0 0 151.7 78;" xml:space="preserve">
<style type="text/css">
	.st0{fill:#E0E00E;}
</style>
<path d="M29,59.3V46.6c0-2.7-1.4-4.1-4.2-4.1h-8.1v16.9H8.6V35.1H25c4,0,7,1,9.1,3c2,2,3,4.9,3,8.6v12.7L29,59.3L29,59.3z"/>
<path d="M49.7,35.1h-8.1v24.3h8.1V35.1z"/>
<path d="M54.5,59.3V34.2c0-2.9,0.7-5.1,2.2-6.6c1.5-1.5,3.7-2.3,6.6-2.3h9.1v6.4h-7c-1,0-1.7,0.3-2.2,0.8c-0.5,0.5-0.7,1.4-0.7,2.6
	h10v6.7h-10v17.5L54.5,59.3L54.5,59.3z"/>
<path d="M84.2,59.3c-2.9,0-5.1-0.8-6.6-2.3c-1.5-1.5-2.2-3.7-2.2-6.6V28.2h8.1v6.9h9.7v6.7h-9.7v8c0,1.9,1,2.9,2.9,2.9h6.6v6.7H84.2
	z"/>
<path d="M100.6,67.8v-7h2.6c1,0,1.8-0.2,2.4-0.6c0.6-0.4,1.1-0.9,1.4-1.6L95.3,35.1h8.2l7.2,15.5l7.4-15.5h8.2l-13.4,26.6
	c-0.5,1-1.1,1.9-1.6,2.7c-0.6,0.8-1.2,1.4-1.9,1.9c-0.7,0.5-1.5,0.9-2.4,1.1c-0.9,0.2-1.9,0.4-3.1,0.4L100.6,67.8L100.6,67.8z"/>
<path class="st0" d="M46.3,9.4l-5.7,14.5l5.7-1.1l-1.1,9.9l7-14.3l-5.4,0.9L46.3,9.4z"/>
<g>
	<path d="M123.3,58.5c0-0.3,0.1-0.5,0.3-0.7s0.4-0.3,0.7-0.3s0.6,0.1,0.7,0.3s0.3,0.4,0.3,0.7s-0.1,0.5-0.3,0.7s-0.4,0.3-0.7,0.3
		s-0.6-0.1-0.7-0.3S123.3,58.8,123.3,58.5z"/>
	<path d="M129,43c0-0.3,0.1-0.5,0.3-0.7s0.4-0.3,0.7-0.3s0.5,0.1,0.7,0.3s0.3,0.4,0.3,0.7c0,0.3-0.1,0.5-0.3,0.7
		c-0.2,0.2-0.4,0.3-0.7,0.3s-0.5-0.1-0.7-0.3C129.1,43.5,129,43.3,129,43z M130.7,59.3h-1.4V46.7h1.4V59.3z"/>
	<path d="M133.7,52.8c0-1.2,0.2-2.3,0.7-3.3s1.1-1.7,2-2.3s1.8-0.8,2.9-0.8c1.7,0,3.1,0.6,4.1,1.8s1.6,2.8,1.6,4.7v0.3
		c0,1.2-0.2,2.3-0.7,3.3s-1.1,1.7-2,2.3s-1.8,0.8-2.9,0.8c-1.7,0-3-0.6-4.1-1.8s-1.6-2.8-1.6-4.7V52.8z M135.1,53.2
		c0,1.5,0.4,2.8,1.2,3.7s1.8,1.5,3.1,1.5c1.3,0,2.3-0.5,3.1-1.5s1.2-2.3,1.2-3.8v-0.3c0-1-0.2-1.9-0.5-2.7s-0.9-1.4-1.5-1.9
		s-1.4-0.7-2.2-0.7c-1.2,0-2.3,0.5-3.1,1.5s-1.2,2.3-1.2,3.8V53.2z"/>
</g>
</svg>
