<svg id="Ether_Outlined" data-name="Ether Outlined" xmlns="http://www.w3.org/2000/svg" viewBox="0 0 575.33 575.33"><defs><style>.cls-1{fill:#fff;}.cls-2{fill:#7e7f7f;}</style></defs><path class="cls-1" d="M567,587.67H33A20.73,20.73,0,0,1,12.33,567V33A20.73,20.73,0,0,1,33,12.33H567A20.73,20.73,0,0,1,587.67,33V567A20.73,20.73,0,0,1,567,587.67ZM33,21.33A11.72,11.72,0,0,0,21.33,33V567A11.72,11.72,0,0,0,33,578.67H567a11.72,11.72,0,0,0,11.7-11.7V33A11.72,11.72,0,0,0,567,21.33Z" transform="translate(-12.33 -12.33)"/><path class="cls-2" d="M248.3,98.46h-2.51V39.53h2.51Z" transform="translate(-12.33 -12.33)"/><path class="cls-1" d="M79.71,45.67V56.51H49.88V45.67Zm0,16.27V72.79H49.88V61.94Zm0,16.27V89.06H49.88V78.21Z" transform="translate(-12.33 -12.33)"/><path class="cls-1" d="M93.27,56.51H85.14V45.67h27.12V56.51h-8.14V89.06H93.27Z" transform="translate(-12.33 -12.33)"/><path class="cls-1" d="M128.53,61.94h8.13V45.67h10.85V89.06H136.66V72.79h-8.13V89.06H117.68V45.67h10.85Z" transform="translate(-12.33 -12.33)"/><path class="cls-1" d="M182.77,45.67V56.51H152.94V45.67Zm0,16.27V72.79H152.94V61.94Zm0,16.27V89.06H152.94V78.21Z" transform="translate(-12.33 -12.33)"/><path class="cls-1" d="M188.19,56.51V45.67H218V72.79H199V89.06H188.19V61.94h19V56.51Zm24.41,21.7L218,89.06H207.18l-5.43-10.85Z" transform="translate(-12.33 -12.33)"/><path class="cls-1" d="M459.79,531.27h5.65a29.63,29.63,0,0,0-2.24,6.94,34.17,34.17,0,0,0-.91,5.92,26.25,26.25,0,0,0,.83,5.7,35.35,35.35,0,0,0,2.06,6.33h-5.53a13.61,13.61,0,0,0-.43-1.32c-.32-.93-.6-1.87-.84-2.81a9.65,9.65,0,0,1-16.16.6,16.11,16.11,0,0,1-2.89-9.55,13.63,13.63,0,0,1,2.88-8.77,9.69,9.69,0,0,1,8-3.61q5.07,0,8.18,4.85A42.57,42.57,0,0,1,459.79,531.27Zm-13.71,12.51a9.69,9.69,0,0,0,1.46,5.59,4.48,4.48,0,0,0,7.49.25c1-1.27,1.43-3.21,1.43-5.84a9.58,9.58,0,0,0-1.52-5.86,4.52,4.52,0,0,0-3.68-2,4.42,4.42,0,0,0-3.72,2.06A9.88,9.88,0,0,0,446.08,543.78Z" transform="translate(-12.33 -12.33)"/><path class="cls-1" d="M470.45,556.16V531.27H477v24.89Zm6-34a7.34,7.34,0,0,1-1,4.19,8.19,8.19,0,0,1-3.61,2.49l-1.13-2.15a7.57,7.57,0,0,0,2.09-1.15,2.86,2.86,0,0,0,.72-2.13h-2.48v-4.5h5.39Z" transform="translate(-12.33 -12.33)"/><path class="cls-1" d="M493.33,521.21q11.15,0,11.15,17.77t-11.15,17.74a9.62,9.62,0,0,1-8.17-4q-3-4-3-13.82Q482.17,521.21,493.33,521.21Zm4.36,15c-.13-3.9-.56-6.49-1.28-7.75a3.43,3.43,0,0,0-6.15,0q-1.11,1.9-1.27,7.74Zm0,5.47H489c.11,3.9.53,6.49,1.25,7.75a3.45,3.45,0,0,0,6.17,0Q497.49,547.53,497.69,541.7Z" transform="translate(-12.33 -12.33)"/><path class="cls-1" d="M532.3,565.62h-6.58V543.45a27.3,27.3,0,0,0-.27-4.67,3.7,3.7,0,0,0-1.27-2.19,3.75,3.75,0,0,0-2.54-.85,5.17,5.17,0,0,0-3.24,1.06,4.73,4.73,0,0,0-1.79,2.7,25.16,25.16,0,0,0-.41,5.38v11.28h-6.58V531.27h6.11v3.65A10,10,0,0,1,524,530.7a9,9,0,0,1,4.87,1.25,6.38,6.38,0,0,1,2.73,3.16,16.08,16.08,0,0,1,.74,5.58Zm-14.95-37.4,3.23-7H528l-6.45,7Z" transform="translate(-12.33 -12.33)"/><path class="cls-1" d="M545,554.63v11h-6.59V546a26.31,26.31,0,0,1,1.09-8.4,9.92,9.92,0,0,1,3.95-5,12.2,12.2,0,0,1,6.92-1.91,12.36,12.36,0,0,1,9.58,3.89,13.35,13.35,0,0,1,3.56,9.36,12.82,12.82,0,0,1-3.43,9,11,11,0,0,1-8.42,3.72A12.52,12.52,0,0,1,545,554.63Zm0-10.17a7.55,7.55,0,0,0,1.57,5,5.23,5.23,0,0,0,4.26,1.9,5.17,5.17,0,0,0,4.29-2.12,8.81,8.81,0,0,0,1.64-5.57,9.12,9.12,0,0,0-1.51-5.55,5.06,5.06,0,0,0-4.34-2,5.51,5.51,0,0,0-4.19,1.84Q545,539.76,545,544.46Z" transform="translate(-12.33 -12.33)"/><path class="cls-1" d="M63.88,133.47H51.54v12.59h-.93v-25.6h15v1H51.54v11.08H63.88Z" transform="translate(-12.33 -12.33)"/><path class="cls-1" d="M67.73,136.18A10.12,10.12,0,0,1,70,129.34a7.87,7.87,0,0,1,11.78,0,10.12,10.12,0,0,1,2.27,6.84v.74a10.13,10.13,0,0,1-2.27,6.85,7.34,7.34,0,0,1-5.86,2.66A7.44,7.44,0,0,1,70,143.77a10.18,10.18,0,0,1-2.27-6.85Zm.93.74a9.49,9.49,0,0,0,2,6.07,6.4,6.4,0,0,0,5.3,2.49,6.32,6.32,0,0,0,5.24-2.5,9.48,9.48,0,0,0,2-6.06v-.74a9.46,9.46,0,0,0-2-6,6.75,6.75,0,0,0-10.52,0,9.5,9.5,0,0,0-2,6Z" transform="translate(-12.33 -12.33)"/><path class="cls-1" d="M94.84,145.48A6.86,6.86,0,0,0,99,144.16a4.57,4.57,0,0,0,1.81-4h.79l0,.11a5.22,5.22,0,0,1-2,4.46,7.49,7.49,0,0,1-4.8,1.66,6.69,6.69,0,0,1-5.59-2.62,11,11,0,0,1-2-6.89v-.74a11,11,0,0,1,2-6.87,6.62,6.62,0,0,1,5.57-2.62,7.21,7.21,0,0,1,4.9,1.73,5.89,5.89,0,0,1,1.94,4.88l0,.1h-.79a5.27,5.27,0,0,0-1.76-4.28,6.36,6.36,0,0,0-4.25-1.48,5.68,5.68,0,0,0-5,2.39,10.44,10.44,0,0,0-1.69,6.15v.74a10.5,10.5,0,0,0,1.69,6.18A5.75,5.75,0,0,0,94.84,145.48Z" transform="translate(-12.33 -12.33)"/><path class="cls-1" d="M118.92,142.72a6.54,6.54,0,0,1-2.5,2.73,7.49,7.49,0,0,1-3.93,1,5.41,5.41,0,0,1-4.51-2.09c-1.08-1.39-1.63-3.54-1.63-6.46V127h.94v10.88q0,3.87,1.39,5.71a4.49,4.49,0,0,0,3.78,1.85,6.29,6.29,0,0,0,4.4-1.42,6.65,6.65,0,0,0,2-3.73V127h.94v11.19h0c0,.16,0,.3,0,.44s0,.31,0,.5v6.89h-.77Z" transform="translate(-12.33 -12.33)"/><path class="cls-1" d="M137.17,141.4a3.77,3.77,0,0,0-1.26-2.75,9.18,9.18,0,0,0-4.42-1.94,12.48,12.48,0,0,1-4.82-1.86,4,4,0,0,1-1.49-3.37,4.24,4.24,0,0,1,1.69-3.41,7,7,0,0,1,4.55-1.38,7.42,7.42,0,0,1,4.86,1.47A4.58,4.58,0,0,1,138,132l0,.11h-.79a4.07,4.07,0,0,0-1.54-3.18,6.28,6.28,0,0,0-4.18-1.3,6,6,0,0,0-4,1.15,3.42,3.42,0,0,0-1.34,2.66,3.34,3.34,0,0,0,1.14,2.55,10.49,10.49,0,0,0,4.51,1.84,12.25,12.25,0,0,1,4.73,2,4.26,4.26,0,0,1,1.61,3.56,4.37,4.37,0,0,1-1.79,3.62,7.59,7.59,0,0,1-4.76,1.39,8,8,0,0,1-5.11-1.49,4.16,4.16,0,0,1-1.73-3.61l0-.11h.75a3.78,3.78,0,0,0,1.9,3.26,8.33,8.33,0,0,0,4.15,1,6.33,6.33,0,0,0,4.11-1.23A3.6,3.6,0,0,0,137.17,141.4Z" transform="translate(-12.33 -12.33)"/><path class="cls-1" d="M150.29,136.18a10.17,10.17,0,0,1,2.27-6.84,7.88,7.88,0,0,1,11.79,0,10.17,10.17,0,0,1,2.26,6.84v.74a10.18,10.18,0,0,1-2.26,6.85,7.85,7.85,0,0,1-11.78,0,10.14,10.14,0,0,1-2.28-6.85Zm.93.74a9.49,9.49,0,0,0,2,6.07,6.8,6.8,0,0,0,10.53,0,9.48,9.48,0,0,0,2-6.06v-.74a9.46,9.46,0,0,0-2-6,6.74,6.74,0,0,0-10.51,0,9.51,9.51,0,0,0-2,6Z" transform="translate(-12.33 -12.33)"/><path class="cls-1" d="M171.87,127l.12,3.83a7.09,7.09,0,0,1,2.48-3.09,7,7,0,0,1,4-1.09,5.43,5.43,0,0,1,4.58,2q1.53,1.95,1.53,6.21v11.2h-.93V134.82c0-2.63-.47-4.49-1.39-5.57a4.7,4.7,0,0,0-3.77-1.61,5.69,5.69,0,0,0-4.48,1.74,8.6,8.6,0,0,0-2,4.48v12.2h-.93v-9.74H171v-.68c0-.23,0-.46.05-.69V127Z" transform="translate(-12.33 -12.33)"/><path class="cls-1" d="M207.07,127.72l-1.21-.1a5.36,5.36,0,0,0-4.06,1.64,8.14,8.14,0,0,0-2,4.33v12.47h-.93V127h.75l.18,3.3V131a6.77,6.77,0,0,1,2.31-3.17,6.13,6.13,0,0,1,3.77-1.13,4.15,4.15,0,0,1,.73.06,4.67,4.67,0,0,1,.58.13Z" transform="translate(-12.33 -12.33)"/><path class="cls-1" d="M216.86,146.43a7.08,7.08,0,0,1-5.56-2.61,9.62,9.62,0,0,1-2.27-6.55v-1.13a10.15,10.15,0,0,1,2.25-6.79,7.09,7.09,0,0,1,5.66-2.66,6.28,6.28,0,0,1,4.95,2.08,8.27,8.27,0,0,1,1.84,5.69v1.45H210v1.36a9,9,0,0,0,1.93,5.84,6.12,6.12,0,0,0,5,2.37,8.25,8.25,0,0,0,3.21-.64,6.84,6.84,0,0,0,2.51-1.68l.5.74a7.57,7.57,0,0,1-2.54,1.81A8.66,8.66,0,0,1,216.86,146.43Zm.08-18.79a6.14,6.14,0,0,0-4.75,2,8.47,8.47,0,0,0-2.09,5.18l.05.11H222.8v-.58a7.36,7.36,0,0,0-1.57-4.85A5.24,5.24,0,0,0,216.94,127.64Z" transform="translate(-12.33 -12.33)"/><path class="cls-1" d="M239.94,142.54a7.49,7.49,0,0,1-2.88,2.81,9.31,9.31,0,0,1-4.64,1.08,5.6,5.6,0,0,1-4.08-1.45,5.23,5.23,0,0,1-1.49-3.92,4.81,4.81,0,0,1,2.22-4,9.11,9.11,0,0,1,5.54-1.62h5.33v-2.78a4.72,4.72,0,0,0-1.49-3.7,6.15,6.15,0,0,0-4.2-1.32,6.3,6.3,0,0,0-4.08,1.24,4,4,0,0,0-1.54,3.22l-.78,0,0-.08a4.47,4.47,0,0,1,1.69-3.76,7,7,0,0,1,4.74-1.53,7.16,7.16,0,0,1,4.81,1.54,5.57,5.57,0,0,1,1.81,4.47v9.53a15.71,15.71,0,0,0,.11,2,12.25,12.25,0,0,0,.37,1.88h-1c-.15-.83-.25-1.46-.31-1.87a11.48,11.48,0,0,1-.07-1.35Zm-7.52,3a8.46,8.46,0,0,0,4.7-1.24,7.26,7.26,0,0,0,2.82-3.57v-4.27h-5.28a8.4,8.4,0,0,0-4.88,1.36,4,4,0,0,0-2,3.37,4.17,4.17,0,0,0,1.27,3.13A4.64,4.64,0,0,0,232.42,145.49Z" transform="translate(-12.33 -12.33)"/><path class="cls-1" d="M248,146.06h-.93V118.64H248Z" transform="translate(-12.33 -12.33)"/><path class="cls-1" d="M263.05,135.53H252.88v-.95h10.17Z" transform="translate(-12.33 -12.33)"/><path class="cls-1" d="M271.39,140.56l1,3.9.1,0,1.23-3.92L277.87,127h.95L283,140.56l1.21,3.92.1,0,1-3.9L289.09,127h1.09l-5.43,19h-.93l-4.67-14.29-.78-3h-.1l-.81,3-4.6,14.29h-.93l-5.42-19h1.07Z" transform="translate(-12.33 -12.33)"/><path class="cls-1" d="M293.3,136.18a10.17,10.17,0,0,1,2.27-6.84,7.88,7.88,0,0,1,11.79,0,10.17,10.17,0,0,1,2.26,6.84v.74a10.18,10.18,0,0,1-2.26,6.85,7.85,7.85,0,0,1-11.78,0,10.14,10.14,0,0,1-2.28-6.85Zm.93.74a9.49,9.49,0,0,0,2,6.07,6.8,6.8,0,0,0,10.53,0,9.48,9.48,0,0,0,2-6.06v-.74a9.46,9.46,0,0,0-2-6,6.74,6.74,0,0,0-10.51,0,9.51,9.51,0,0,0-2,6Z" transform="translate(-12.33 -12.33)"/><path class="cls-1" d="M322.31,127.72l-1.21-.1a5.37,5.37,0,0,0-4.06,1.64,8.14,8.14,0,0,0-2,4.33v12.47h-.93V127h.75l.18,3.3V131a6.77,6.77,0,0,1,2.31-3.17,6.13,6.13,0,0,1,3.77-1.13,4.07,4.07,0,0,1,.73.06,4.67,4.67,0,0,1,.58.13Z" transform="translate(-12.33 -12.33)"/><path class="cls-1" d="M327.05,146.06h-.93V118.64h.93Z" transform="translate(-12.33 -12.33)"/><path class="cls-1" d="M332.3,136.53a12.32,12.32,0,0,1,1.87-7.18,5.94,5.94,0,0,1,5.17-2.66,7,7,0,0,1,3.76,1,7.26,7.26,0,0,1,2.55,2.72V118.64h.93v14.3s0,0,0,0v7.75a.15.15,0,0,0,0,.06v5.29h-.9l0-2.94a6.7,6.7,0,0,1-2.56,2.42,7.78,7.78,0,0,1-3.79.89,6,6,0,0,1-5.14-2.57,11.63,11.63,0,0,1-1.86-7Zm1,.37a11.26,11.26,0,0,0,1.53,6.26,5,5,0,0,0,4.49,2.32,6.92,6.92,0,0,0,4-1.12,6.38,6.38,0,0,0,2.33-3v-9a8,8,0,0,0-2.18-3.38,5.93,5.93,0,0,0-4.15-1.36,5,5,0,0,0-4.51,2.46,12,12,0,0,0-1.54,6.43Z" transform="translate(-12.33 -12.33)"/><path class="cls-1" d="M362.87,121.9V127h4.58v1h-4.58v13.15a5.48,5.48,0,0,0,.77,3.33,2.46,2.46,0,0,0,2.05,1,6.88,6.88,0,0,0,.83,0l1-.12.17.86a4.5,4.5,0,0,1-.9.19,8.27,8.27,0,0,1-1.05.06,3.4,3.4,0,0,1-2.85-1.25,6.6,6.6,0,0,1-1-4V128h-3.45v-1h3.45V121.9Z" transform="translate(-12.33 -12.33)"/><path class="cls-1" d="M373,121.06h-.93v-2.42H373Zm0,25h-.93V127H373Z" transform="translate(-12.33 -12.33)"/><path class="cls-1" d="M385.65,146.43a7.09,7.09,0,0,1-5.56-2.61,9.61,9.61,0,0,1-2.26-6.55v-1.13a10.2,10.2,0,0,1,2.24-6.79,7.09,7.09,0,0,1,5.67-2.66,6.27,6.27,0,0,1,4.94,2.08,8.27,8.27,0,0,1,1.85,5.69v1.45H378.76v1.36a8.9,8.9,0,0,0,1.93,5.84,6.1,6.1,0,0,0,5,2.37,8.3,8.3,0,0,0,3.22-.64,6.88,6.88,0,0,0,2.5-1.68l.5.74a7.53,7.53,0,0,1-2.53,1.81A8.71,8.71,0,0,1,385.65,146.43Zm.09-18.79a6.12,6.12,0,0,0-4.75,2,8.42,8.42,0,0,0-2.1,5.18l.06.11H391.6v-.58a7.42,7.42,0,0,0-1.57-4.85A5.27,5.27,0,0,0,385.74,127.64Z" transform="translate(-12.33 -12.33)"/><path class="cls-1" d="M405.94,135.53H395.77v-.95h10.17Z" transform="translate(-12.33 -12.33)"/><path class="cls-1" d="M412.09,121.06h-.93v-2.42h.93Zm0,25h-.93V127h.93Z" transform="translate(-12.33 -12.33)"/><path class="cls-1" d="M419,127l.12,3.83a7.09,7.09,0,0,1,2.48-3.09,7,7,0,0,1,4-1.09,5.41,5.41,0,0,1,4.57,2q1.53,1.95,1.53,6.21v11.2h-.93V134.82c0-2.63-.47-4.49-1.39-5.57a4.7,4.7,0,0,0-3.77-1.61,5.7,5.7,0,0,0-4.48,1.74,8.6,8.6,0,0,0-2,4.48v12.2h-.93v-9.74h0c0-.22,0-.45,0-.68s0-.46,0-.69V127Z" transform="translate(-12.33 -12.33)"/><path class="cls-1" d="M64.38,178.9a11.63,11.63,0,0,1-1.86,7,6,6,0,0,1-5.13,2.57,7.89,7.89,0,0,1-3.79-.88,6.79,6.79,0,0,1-2.54-2.39v10.21h-.93V182.85l0-.08v-7.83a.9.9,0,0,1,0-.12V169h.72L51,172.4a6.86,6.86,0,0,1,6.31-3.71,5.93,5.93,0,0,1,5.16,2.66,12.25,12.25,0,0,1,1.87,7.18Zm-.94-.37a11.89,11.89,0,0,0-1.56-6.43,5,5,0,0,0-4.51-2.46A6,6,0,0,0,53.22,171a7.8,7.8,0,0,0-2.16,3.34v9.09a6.12,6.12,0,0,0,2.31,3,7,7,0,0,0,4,1.1,5.06,5.06,0,0,0,4.49-2.32,11.18,11.18,0,0,0,1.55-6.26Z" transform="translate(-12.33 -12.33)"/><path class="cls-1" d="M77.67,169.72l-1.2-.1a5.36,5.36,0,0,0-4.06,1.64,8.15,8.15,0,0,0-2,4.33v12.47h-.93V169h.76l.17,3.3V173a6.9,6.9,0,0,1,2.31-3.17,6.14,6.14,0,0,1,3.78-1.13,4.15,4.15,0,0,1,.73.06,5.13,5.13,0,0,1,.58.13Z" transform="translate(-12.33 -12.33)"/><path class="cls-1" d="M79.45,178.18a10.12,10.12,0,0,1,2.27-6.84,7.87,7.87,0,0,1,11.78,0,10.12,10.12,0,0,1,2.27,6.84v.74a10.13,10.13,0,0,1-2.27,6.85,7.34,7.34,0,0,1-5.86,2.66,7.44,7.44,0,0,1-5.92-2.66,10.18,10.18,0,0,1-2.27-6.85Zm.93.74a9.49,9.49,0,0,0,2,6.07,6.4,6.4,0,0,0,5.3,2.49,6.32,6.32,0,0,0,5.24-2.5,9.48,9.48,0,0,0,2-6.06v-.74a9.46,9.46,0,0,0-2-6,6.75,6.75,0,0,0-10.52,0,9.5,9.5,0,0,0-2,6Z" transform="translate(-12.33 -12.33)"/><path class="cls-1" d="M101.41,169v20.58a7,7,0,0,1-1.3,4.53,4.38,4.38,0,0,1-3.61,1.59,4.79,4.79,0,0,1-1-.09c-.3-.06-.63-.15-1-.26l.23-.92c.22.07.48.14.8.21a4.26,4.26,0,0,0,.91.11,3.48,3.48,0,0,0,2.93-1.35,6.13,6.13,0,0,0,1-3.82V169Zm-.11-6h-.93v-2.35h.93Z" transform="translate(-12.33 -12.33)"/><path class="cls-1" d="M114.44,188.43a7.08,7.08,0,0,1-5.56-2.61,9.62,9.62,0,0,1-2.27-6.55v-1.13a10.15,10.15,0,0,1,2.25-6.79,7.09,7.09,0,0,1,5.66-2.66,6.28,6.28,0,0,1,5,2.08,8.27,8.27,0,0,1,1.85,5.69v1.45H107.54v1.36a9,9,0,0,0,1.93,5.84,6.13,6.13,0,0,0,5,2.37,8.25,8.25,0,0,0,3.21-.64,6.84,6.84,0,0,0,2.51-1.68l.5.74a7.53,7.53,0,0,1-2.53,1.81A8.74,8.74,0,0,1,114.44,188.43Zm.08-18.79a6.1,6.1,0,0,0-4.74,2,8.42,8.42,0,0,0-2.1,5.18l0,.11h12.65v-.58a7.41,7.41,0,0,0-1.56-4.85A5.27,5.27,0,0,0,114.52,169.64Z" transform="translate(-12.33 -12.33)"/><path class="cls-1" d="M132.14,187.48a6.91,6.91,0,0,0,4.17-1.32,4.57,4.57,0,0,0,1.81-4h.79l0,.11a5.28,5.28,0,0,1-2,4.46,7.49,7.49,0,0,1-4.8,1.66,6.69,6.69,0,0,1-5.59-2.62,11,11,0,0,1-2-6.89v-.74a10.9,10.9,0,0,1,2-6.87,6.62,6.62,0,0,1,5.57-2.62,7.21,7.21,0,0,1,4.9,1.73A5.92,5.92,0,0,1,139,175.3l0,.1h-.79a5.3,5.3,0,0,0-1.76-4.28,6.36,6.36,0,0,0-4.25-1.48,5.68,5.68,0,0,0-5,2.39,10.44,10.44,0,0,0-1.69,6.15v.74a10.5,10.5,0,0,0,1.69,6.18A5.75,5.75,0,0,0,132.14,187.48Z" transform="translate(-12.33 -12.33)"/><path class="cls-1" d="M145.65,163.9V169h4.59v1h-4.59v13.15a5.47,5.47,0,0,0,.78,3.33,2.46,2.46,0,0,0,2,1,6.88,6.88,0,0,0,.83,0l1-.12.17.86a4.5,4.5,0,0,1-.9.19,8.27,8.27,0,0,1-1.05.06,3.4,3.4,0,0,1-2.85-1.25,6.6,6.6,0,0,1-1-4V170h-3.45v-1h3.45V163.9Z" transform="translate(-12.33 -12.33)"/><path class="cls-1" d="M166.06,183.4a3.75,3.75,0,0,0-1.27-2.75,9.09,9.09,0,0,0-4.42-1.94,12.49,12.49,0,0,1-4.81-1.86,4,4,0,0,1-1.5-3.37,4.26,4.26,0,0,1,1.69-3.41,7,7,0,0,1,4.55-1.38,7.43,7.43,0,0,1,4.87,1.47,4.54,4.54,0,0,1,1.68,3.85l0,.11H166a4.05,4.05,0,0,0-1.55-3.18,6.24,6.24,0,0,0-4.18-1.3,5.94,5.94,0,0,0-4,1.15,3.39,3.39,0,0,0-1.34,2.66,3.33,3.33,0,0,0,1.13,2.55,10.6,10.6,0,0,0,4.52,1.84,12.25,12.25,0,0,1,4.73,2,4.29,4.29,0,0,1,1.61,3.56A4.39,4.39,0,0,1,165.2,187a7.61,7.61,0,0,1-4.76,1.39,8,8,0,0,1-5.11-1.49,4.16,4.16,0,0,1-1.73-3.61l0-.11h.76a3.76,3.76,0,0,0,1.9,3.26,8.3,8.3,0,0,0,4.15,1,6.3,6.3,0,0,0,4.1-1.23A3.58,3.58,0,0,0,166.06,183.4Z" transform="translate(-12.33 -12.33)"/><path class="cls-1" d="M173.28,188.2l-1.2,4.39h-.88l1.15-4.32v-3h.93Z" transform="translate(-12.33 -12.33)"/><path class="cls-1" d="M185.78,178.18a10.17,10.17,0,0,1,2.27-6.84,7.88,7.88,0,0,1,11.79,0,10.17,10.17,0,0,1,2.26,6.84v.74a10.18,10.18,0,0,1-2.26,6.85,7.85,7.85,0,0,1-11.78,0,10.14,10.14,0,0,1-2.28-6.85Zm.93.74a9.49,9.49,0,0,0,2,6.07,6.8,6.8,0,0,0,10.53,0,9.48,9.48,0,0,0,2-6.06v-.74a9.46,9.46,0,0,0-2-6,6.74,6.74,0,0,0-10.51,0,9.51,9.51,0,0,0-2,6Z" transform="translate(-12.33 -12.33)"/><path class="cls-1" d="M208,188.06V170h-3.24v-1H208v-3.13a6.21,6.21,0,0,1,1.28-4.17,4.54,4.54,0,0,1,3.6-1.47,8.57,8.57,0,0,1,1.13.07,6.15,6.15,0,0,1,1.07.22l-.13.92c-.37-.09-.7-.16-1-.2a7.85,7.85,0,0,0-1.07-.06,3.6,3.6,0,0,0-2.92,1.24,5.21,5.21,0,0,0-1.05,3.45V169h4.93v1h-4.93v18.06Z" transform="translate(-12.33 -12.33)"/><path class="cls-1" d="M244.69,188.06h-.93l-16.1-23.84-.1,0v23.8h-.95v-25.6h.95l16.1,23.79.1,0V162.46h.93Z" transform="translate(-12.33 -12.33)"/><path class="cls-1" d="M264.86,175.47H252.52v12.59h-.93v-25.6h15v.95h-14.1v11.08h12.34Z" transform="translate(-12.33 -12.33)"/><path class="cls-1" d="M287.68,163.41h-8.79v24.65H278V163.41h-9.41v-.95h19.13Z" transform="translate(-12.33 -12.33)"/><path class="cls-1" d="M301.06,183.4a3.78,3.78,0,0,0-1.27-2.75,9.18,9.18,0,0,0-4.42-1.94,12.48,12.48,0,0,1-4.82-1.86,4,4,0,0,1-1.49-3.37,4.24,4.24,0,0,1,1.69-3.41,7,7,0,0,1,4.55-1.38,7.38,7.38,0,0,1,4.86,1.47,4.55,4.55,0,0,1,1.69,3.85l0,.11H301a4,4,0,0,0-1.54-3.18,6.26,6.26,0,0,0-4.18-1.3,6,6,0,0,0-4,1.15,3.42,3.42,0,0,0-1.34,2.66,3.34,3.34,0,0,0,1.14,2.55,10.55,10.55,0,0,0,4.51,1.84,12.37,12.37,0,0,1,4.74,2,4.29,4.29,0,0,1,1.61,3.56,4.38,4.38,0,0,1-1.8,3.62,7.58,7.58,0,0,1-4.75,1.39,8,8,0,0,1-5.11-1.49,4.14,4.14,0,0,1-1.74-3.61l0-.11h.76a3.75,3.75,0,0,0,1.89,3.26,8.37,8.37,0,0,0,4.16,1,6.32,6.32,0,0,0,4.1-1.23A3.61,3.61,0,0,0,301.06,183.4Z" transform="translate(-12.33 -12.33)"/><path class="cls-1" d="M327.34,184.54a7.35,7.35,0,0,1-2.88,2.81,9.27,9.27,0,0,1-4.63,1.08,5.63,5.63,0,0,1-4.09-1.45,5.22,5.22,0,0,1-1.48-3.92,4.82,4.82,0,0,1,2.21-4,9.16,9.16,0,0,1,5.54-1.62h5.33v-2.78a4.72,4.72,0,0,0-1.49-3.7,6.11,6.11,0,0,0-4.2-1.32,6.26,6.26,0,0,0-4.07,1.24A4,4,0,0,0,316,174.1l-.77,0,0-.08a4.52,4.52,0,0,1,1.69-3.76,7.07,7.07,0,0,1,4.74-1.53,7.16,7.16,0,0,1,4.81,1.54,5.54,5.54,0,0,1,1.81,4.47v9.53a17.92,17.92,0,0,0,.11,2,13.58,13.58,0,0,0,.37,1.88h-1c-.15-.83-.25-1.46-.3-1.87a11.4,11.4,0,0,1-.08-1.35Zm-7.51,3a8.43,8.43,0,0,0,4.69-1.24,7.26,7.26,0,0,0,2.82-3.57v-4.27h-5.27a8.45,8.45,0,0,0-4.89,1.36,4,4,0,0,0-2,3.37,4.14,4.14,0,0,0,1.27,3.13A4.61,4.61,0,0,0,319.83,187.49Z" transform="translate(-12.33 -12.33)"/><path class="cls-1" d="M335.06,169l.12,3.83a7.11,7.11,0,0,1,2.49-3.09,6.93,6.93,0,0,1,4-1.09,5.41,5.41,0,0,1,4.57,2q1.53,1.95,1.53,6.21v11.2h-.93V176.82q0-3.94-1.39-5.57a4.68,4.68,0,0,0-3.76-1.61,5.71,5.71,0,0,0-4.49,1.74,8.6,8.6,0,0,0-2,4.48v12.2h-.93v-9.74h0c0-.22,0-.45,0-.68s0-.46,0-.69V169Z" transform="translate(-12.33 -12.33)"/><path class="cls-1" d="M352.73,178.53a12.32,12.32,0,0,1,1.86-7.18,6,6,0,0,1,5.17-2.66,7,7,0,0,1,3.77,1,7.24,7.24,0,0,1,2.54,2.72V160.64H367v14.3s0,0,0,0v7.75s0,0,0,.06v5.29h-.89l0-2.94a6.67,6.67,0,0,1-2.55,2.42,7.78,7.78,0,0,1-3.79.89,6,6,0,0,1-5.15-2.57,11.7,11.7,0,0,1-1.85-7Zm1,.37a11.26,11.26,0,0,0,1.52,6.26,5.06,5.06,0,0,0,4.49,2.32,7,7,0,0,0,4-1.12,6.36,6.36,0,0,0,2.32-3v-9a8,8,0,0,0-2.18-3.38,5.89,5.89,0,0,0-4.14-1.36,5,5,0,0,0-4.51,2.46,12,12,0,0,0-1.54,6.43Z" transform="translate(-12.33 -12.33)"/><path class="cls-1" d="M384.7,182.56l1,3.9.1,0,1.23-3.92L391.18,169h.95l4.17,13.52,1.21,3.92.1,0,1-3.9,3.8-13.52h1.08l-5.43,19h-.93l-4.67-14.29-.78-3h-.1l-.81,3-4.6,14.29h-.93l-5.41-19h1.06Z" transform="translate(-12.33 -12.33)"/><path class="cls-1" d="M414.61,188.43a7.08,7.08,0,0,1-5.56-2.61,9.62,9.62,0,0,1-2.27-6.55v-1.13a10.15,10.15,0,0,1,2.25-6.79,7.09,7.09,0,0,1,5.66-2.66,6.28,6.28,0,0,1,4.95,2.08,8.27,8.27,0,0,1,1.85,5.69v1.45H407.71v1.36a9,9,0,0,0,1.93,5.84,6.13,6.13,0,0,0,5,2.37,8.25,8.25,0,0,0,3.21-.64,6.84,6.84,0,0,0,2.51-1.68l.5.74a7.53,7.53,0,0,1-2.53,1.81A8.74,8.74,0,0,1,414.61,188.43Zm.08-18.79a6.1,6.1,0,0,0-4.74,2,8.42,8.42,0,0,0-2.1,5.18l0,.11h12.65v-.58a7.41,7.41,0,0,0-1.56-4.85A5.27,5.27,0,0,0,414.69,169.64Z" transform="translate(-12.33 -12.33)"/><path class="cls-1" d="M440.24,178.9a11.63,11.63,0,0,1-1.86,7,6,6,0,0,1-5.14,2.57,7.79,7.79,0,0,1-3.82-.9,6.7,6.7,0,0,1-2.54-2.41l-.12,2.94H426v-5.19a.29.29,0,0,1,0-.09.15.15,0,0,1,0-.07v-7.77a.9.9,0,0,1,0-.12V160.64h.94v11.74a6.76,6.76,0,0,1,6.29-3.69,6,6,0,0,1,5.16,2.66,12.25,12.25,0,0,1,1.87,7.18Zm-1-.37a11.89,11.89,0,0,0-1.55-6.43,5,5,0,0,0-4.5-2.46,5.93,5.93,0,0,0-4.14,1.35,7.62,7.62,0,0,0-2.16,3.34v9.1a6.18,6.18,0,0,0,2.3,2.95,7,7,0,0,0,4,1.1,5.05,5.05,0,0,0,4.48-2.32,11.26,11.26,0,0,0,1.53-6.26Z" transform="translate(-12.33 -12.33)"/><path class="cls-1" d="M451.44,174.5a7.24,7.24,0,0,0,5-1.6,5,5,0,0,0,1.81-3.93,5.59,5.59,0,0,0-6.16-5.93,6.65,6.65,0,0,0-4.63,1.67,5.73,5.73,0,0,0-1.85,4.45h-.79l0-.1a6.24,6.24,0,0,1,2.05-5,7.57,7.57,0,0,1,5.26-1.93,7.11,7.11,0,0,1,5.17,1.88,6.73,6.73,0,0,1,1.92,5.07,5.75,5.75,0,0,1-1.25,3.62,6.94,6.94,0,0,1-3.37,2.3,7.12,7.12,0,0,1,3.81,2.23,6.11,6.11,0,0,1,1.36,4.08,6.76,6.76,0,0,1-2.09,5.25,7.69,7.69,0,0,1-5.39,1.91,8.88,8.88,0,0,1-5.64-1.93,6.32,6.32,0,0,1-2.36-5.46l0-.1h.8a6,6,0,0,0,2,4.69,7.36,7.36,0,0,0,5.13,1.85,6.7,6.7,0,0,0,4.82-1.63,5.9,5.9,0,0,0,1.73-4.51,5.1,5.1,0,0,0-2-4.42,9,9,0,0,0-5.35-1.43h-1.91v-1Z" transform="translate(-12.33 -12.33)"/><path class="cls-1" d="M466.13,188.06h-1.48v-2.29h1.48Z" transform="translate(-12.33 -12.33)"/><path class="cls-1" d="M280.21,85.8h-3V53.19l-9.85,3.66V54.06l12.33-4.57h.5Z" transform="translate(-12.33 -12.33)"/><path class="cls-1" d="M294.42,92.56l-1.76-1.29A10.82,10.82,0,0,0,295,85V81.13h2.9v3.1A10.7,10.7,0,0,1,294.42,92.56Z" transform="translate(-12.33 -12.33)"/><path class="cls-1" d="M318.16,85.8h-3V53.19l-9.85,3.66V54.06l12.33-4.57h.5Z" transform="translate(-12.33 -12.33)"/><path class="cls-1" d="M346.37,85.8h-3V53.19l-9.84,3.66V54.06l12.33-4.57h.5Z" transform="translate(-12.33 -12.33)"/><path class="cls-1" d="M374.58,85.8h-3V53.19l-9.84,3.66V54.06l12.33-4.57h.5Z" transform="translate(-12.33 -12.33)"/><path class="cls-1" d="M426.05,52.2H413.64V85.8h-3.05V52.2H398.21V49.61h27.84Z" transform="translate(-12.33 -12.33)"/><path class="cls-1" d="M427.09,72a15.86,15.86,0,0,1,1.5-7,11.31,11.31,0,0,1,10.48-6.56,11.07,11.07,0,0,1,8.7,3.77q3.33,3.76,3.33,10v.63a15.86,15.86,0,0,1-1.51,7,11.23,11.23,0,0,1-4.23,4.81,11.69,11.69,0,0,1-6.24,1.69,11.09,11.09,0,0,1-8.69-3.77q-3.35-3.77-3.34-10Zm3,.82a12.22,12.22,0,0,0,2.5,7.91,8.44,8.44,0,0,0,13.07,0,12.56,12.56,0,0,0,2.5-8.16V72A13.75,13.75,0,0,0,447,66.31a9.19,9.19,0,0,0-3.21-4,8.15,8.15,0,0,0-4.72-1.4,8,8,0,0,0-6.49,3.12,12.62,12.62,0,0,0-2.51,8.16Z" transform="translate(-12.33 -12.33)"/><path class="cls-1" d="M463.62,72.25l-3.4,3.29V85.8h-3V47.62h3V72.06L463,69l10.29-10.11h3.75L465.66,70.24l12.4,15.56h-3.55Z" transform="translate(-12.33 -12.33)"/><path class="cls-1" d="M492.08,86.3a11.73,11.73,0,0,1-6.2-1.69,11.49,11.49,0,0,1-4.31-4.71A14.68,14.68,0,0,1,480,73.12V72.06a15.86,15.86,0,0,1,1.5-7,11.91,11.91,0,0,1,4.19-4.88,10.29,10.29,0,0,1,5.81-1.78,9.73,9.73,0,0,1,7.77,3.34q2.86,3.34,2.87,9.14v1.66H483v.57a11.26,11.26,0,0,0,2.63,7.62,8.32,8.32,0,0,0,6.6,3.05,9.69,9.69,0,0,0,4.21-.87,9.36,9.36,0,0,0,3.32-2.79l1.86,1.42A10.87,10.87,0,0,1,492.08,86.3ZM491.53,61a7.43,7.43,0,0,0-5.65,2.46,11.43,11.43,0,0,0-2.8,6.61h16.13v-.33A9.88,9.88,0,0,0,497,63.38,6.85,6.85,0,0,0,491.53,61Z" transform="translate(-12.33 -12.33)"/><path class="cls-1" d="M510.79,58.91l.1,4.6a10.72,10.72,0,0,1,3.78-3.79,9.82,9.82,0,0,1,5-1.31c2.88,0,5,.81,6.43,2.44s2.13,4.06,2.14,7.3V85.8h-3V68.13a8.27,8.27,0,0,0-1.53-5.37c-1-1.18-2.61-1.76-4.81-1.76a7.55,7.55,0,0,0-4.89,1.72,10.24,10.24,0,0,0-3.14,4.66V85.8h-3V58.91Z" transform="translate(-12.33 -12.33)"/><path class="cls-1" d="M552,79a4.26,4.26,0,0,0-1.78-3.55,13.82,13.82,0,0,0-5.36-2.1,23.72,23.72,0,0,1-5.55-1.74,7.24,7.24,0,0,1-2.93-2.4,6,6,0,0,1-1-3.43,6.39,6.39,0,0,1,2.66-5.25,10.69,10.69,0,0,1,6.81-2.08,11,11,0,0,1,7.22,2.23,7.13,7.13,0,0,1,2.72,5.8h-3a4.82,4.82,0,0,0-2-3.93,8.94,8.94,0,0,0-9.69-.26,4,4,0,0,0-1.78,3.39,3.64,3.64,0,0,0,1.48,3.12,15.52,15.52,0,0,0,5.39,2,25.54,25.54,0,0,1,5.87,2,7.6,7.6,0,0,1,2.89,2.51,6.89,6.89,0,0,1-1.8,9,11.72,11.72,0,0,1-7.17,2A12,12,0,0,1,537.48,84a7,7,0,0,1-2.93-5.75h3a5.15,5.15,0,0,0,2.2,4.06,9,9,0,0,0,5.35,1.46,8.45,8.45,0,0,0,5-1.37A4.1,4.1,0,0,0,552,79Z" transform="translate(-12.33 -12.33)"/><path class="cls-1" d="M296.5,306a94.41,94.41,0,0,0-92.29,94.52c.22,53.47,43.44,95.08,93.64,95,54.1-.18,96.53-43.13,95.26-97.66C391.89,345.64,348.35,304.79,296.5,306Zm87.34,99a83,83,0,0,1-16.52,46.57,84.21,84.21,0,0,1-43.84,31.13,81.31,81.31,0,0,1-49,.13,86,86,0,0,1-32-17.49,84.89,84.89,0,0,1-21.14-28.92,80.91,80.91,0,0,1-6.19-17.71,14.35,14.35,0,0,1-.21-1.85c0-.33,0-.66,0-1l.39-.09c.65,1.42,1.33,2.83,2,4.27,3.85,8.84,8.38,17.29,14.56,24.74a69.93,69.93,0,0,0,23.44,18.6c27.05,13.12,57.21,7.41,77.22-12.5,6.54-6.5,11.77-14.07,13.84-23.15,3.48-15.33,2.95-30.39-5.85-44.12-5.08-7.91-11.55-14.49-20.52-18.07-1.54-.61-3.16-1-4.74-1.46l-.2.5c.63.32,1.24.67,1.88,1,14.63,6.69,23.74,18.12,27.35,33.54,3.86,16.48.88,31.8-10.37,44.95-6.77,7.92-15.27,13.47-24.91,17.37a57.45,57.45,0,0,1-21.49,4.14,66.6,66.6,0,0,1-25.26-5.06c-13.9-5.61-23.9-15.57-31.4-28.26a80.25,80.25,0,0,1-10.36-27.43A76.47,76.47,0,0,1,222,372.35c3.63-14,10.27-26.27,20.95-36.13,9-8.3,19.62-13.82,31.31-17.33a82.89,82.89,0,0,1,43.67-1.2A84.42,84.42,0,0,1,358.57,340a83,83,0,0,1,21.26,34.57A87.49,87.49,0,0,1,383.84,405Z" transform="translate(-12.33 -12.33)"/><path class="cls-1" d="M339.28,352.69l-.26-.21c-21.71-17.57-49.84-18.88-73.43-5.36-11.69,6.7-20.43,16.18-25.58,28.68-6.21,15-5.59,30.08.71,45,4.3,10.19,11,18.51,20.49,24.14,16.94,10,34.17,10,51.08-.07,12.3-7.33,19-18.4,20-32.74.78-11.51-3.57-21.17-11.12-29.59-11.31-12.61-28.44-11.86-39.68-5-11.49,7-15.23,22.35-9,34.31a18.33,18.33,0,0,0,22.08,8.91,20.31,20.31,0,0,0,2.07-.95l-.06-.61a21,21,0,0,0-2.07-.4c-1.12-.11-2.26-.07-3.38-.19a15,15,0,0,1-12.73-9.11A15.55,15.55,0,0,1,280,393.41c4.34-6.24,13.89-11,23.45-6.08,6.8,3.46,11.67,8.64,12.67,16.3,1.34,10.24-2.69,18.63-10.69,25-11.51,9.12-26.39,7.68-37-.35-13.67-10.34-18.11-24.63-15.07-41.07,2.83-15.33,12.32-26.12,25.92-33.08,16.66-8.52,33.9-9,51.31-2.09,2.4,1,4.72,2.15,7.07,3.26.87.41,1.74.72,2.38-.3S340,353.3,339.28,352.69Z" transform="translate(-12.33 -12.33)"/><path class="cls-1" d="M298.09,279.57c-65.66.64-117.93,51.59-120.4,116.26A120.23,120.23,0,0,0,298.37,521.29c65.38,0,118.22-50.73,120.92-116.69C422,337.76,367.89,279.92,298.09,279.57Zm-.37,232.18c-58.76.06-109.34-48.64-109.6-111.23-.25-59.23,47.13-109.21,108-110.64,60.7-1.43,111.67,46.39,113.09,107.55C410.72,461.26,361.05,511.54,297.72,511.75Z" transform="translate(-12.33 -12.33)"/></svg>